<svg width="18" height="20" viewBox="0 0 18 20" fill="none" xmlns="http://www.w3.org/2000/svg">
<path d="M3.29864 9.57585C3.23741 10.7392 3.3078 11.9775 2.26844 12.757C1.7847 13.1198 1.5 13.6892 1.5 14.2939C1.5 15.1257 2.1515 15.8333 3 15.8333H15C15.8485 15.8333 16.5 15.1257 16.5 14.2939C16.5 13.6892 16.2153 13.1198 15.7316 12.757C14.6922 11.9775 14.7626 10.7392 14.7014 9.57585C14.5418 6.54353 12.0365 4.16667 9 4.16667C5.96348 4.16667 3.45824 6.54353 3.29864 9.57585Z" stroke="#98A2B3" stroke-width="1.5" stroke-linecap="round" stroke-linejoin="round"/>
<path d="M7.75 2.60417C7.75 3.29453 8.30964 4.16667 9 4.16667C9.69036 4.16667 10.25 3.29453 10.25 2.60417C10.25 1.91382 9.69036 1.66667 9 1.66667C8.30964 1.66667 7.75 1.91382 7.75 2.60417Z" stroke="#98A2B3" stroke-width="1.5"/>
<path d="M11.5 15.8333C11.5 17.2141 10.3807 18.3333 9 18.3333C7.61929 18.3333 6.5 17.2141 6.5 15.8333" stroke="#98A2B3" stroke-width="1.5" stroke-linecap="round" stroke-linejoin="round"/>
</svg>
