<svg width="20" height="20" viewBox="0 0 20 20" fill="none" xmlns="http://www.w3.org/2000/svg">
<g clip-path="url(#clip0_15_12643)">
<path d="M15.8333 1.66663H17.5C17.9602 1.66663 18.3333 2.03972 18.3333 2.49996V4.16663M17.5 2.49996C10.882 7.82609 7.45173 9.26074 1.66663 9.99996M15 8.33329V16.6666C15 17.5871 15.7462 18.3333 16.6666 18.3333C17.5871 18.3333 18.3333 17.5871 18.3333 16.6666V8.33329C18.3333 7.41282 17.5871 6.66663 16.6666 6.66663C15.7462 6.66663 15 7.41282 15 8.33329ZM1.66663 15L1.66663 16.6666C1.66663 17.5871 2.41282 18.3333 3.33329 18.3333C4.25377 18.3333 4.99996 17.5871 4.99996 16.6666L4.99996 15C4.99996 14.0795 4.25377 13.3333 3.33329 13.3333C2.41282 13.3333 1.66663 14.0795 1.66663 15ZM8.33329 11.6666V16.6666C8.33329 17.5871 9.07949 18.3333 9.99996 18.3333C10.9204 18.3333 11.6666 17.5871 11.6666 16.6666V11.6666C11.6666 10.7462 10.9204 9.99996 9.99996 9.99996C9.07949 9.99996 8.33329 10.7462 8.33329 11.6666Z" stroke="#98A2B3" stroke-width="1.5" stroke-linecap="round" stroke-linejoin="round"/>
</g>
<defs>
<clipPath id="clip0_15_12643">
<rect width="20" height="20" fill="white"/>
</clipPath>
</defs>
</svg>
