<svg width="20" height="20" viewBox="0 0 20 20" fill="none" xmlns="http://www.w3.org/2000/svg">
<path d="M9.64196 17.5H8.75581C5.41394 17.5 3.743 17.5 2.70481 16.2118C1.66663 14.9236 1.66663 12.8503 1.66663 8.70366V6.01575C1.66663 4.41793 1.66663 3.61902 1.93624 3.01955C2.12843 2.59223 2.4126 2.23963 2.75699 2.00116C3.24012 1.66663 3.88398 1.66663 5.17171 1.66663C5.99672 1.66663 6.40922 1.66663 6.77031 1.83464C7.59477 2.21826 7.93474 3.14755 8.30676 4.07076L8.75581 5.18514M5.83674 5.18514H12.9572C14.4507 5.18514 15.1974 5.18514 15.7338 5.62988C15.9661 5.82241 16.1654 6.0698 16.3206 6.35795C16.5622 6.80666 16.641 7.37398 16.6666 8.26385" stroke="#98A2B3" stroke-width="1.5" stroke-linecap="round"/>
<path d="M3.82961 10.4795C4.18905 9.52188 4.36877 9.04307 4.7195 8.74239C5.28566 8.25703 6.09965 8.33838 6.79718 8.33838H14.3769C16.4409 8.33838 17.473 8.33838 17.9879 9.00249C18.8719 10.1425 17.829 11.9917 17.4089 13.111C16.6558 15.1174 16.2793 16.1207 15.5293 16.7325C14.3865 17.6649 12.7241 17.4862 11.3449 17.4862H8.28097C5.32844 17.4862 3.85218 17.4862 3.08446 16.5721C1.66723 14.8846 3.1922 12.1777 3.82961 10.4795Z" stroke="#98A2B3" stroke-width="1.5" stroke-linecap="round"/>
</svg>
