<svg width="20" height="20" viewBox="0 0 20 20" fill="none" xmlns="http://www.w3.org/2000/svg">
<path d="M7.55138 4.02194L2.69926 8.26778C2.28317 8.63188 2.56215 9.27857 3.13532 9.27857C3.48549 9.27857 3.76936 9.54077 3.76936 9.86421V12.5671C3.76936 14.8925 3.76936 16.0552 4.55147 16.7776C5.33357 17.5 6.59235 17.5 9.10991 17.5H10.8901C13.4076 17.5 14.6664 17.5 15.4485 16.7776C16.2306 16.0552 16.2306 14.8925 16.2306 12.5671V9.86421C16.2306 9.54077 16.5145 9.27857 16.8647 9.27857C17.4379 9.27857 17.7168 8.63188 17.3007 8.26778L12.4486 4.02194C11.2891 3.00731 10.7094 2.5 10 2.5C9.29065 2.5 8.71089 3.00731 7.55138 4.02194Z" stroke="#98A2B3" stroke-width="1.5" stroke-linecap="round" stroke-linejoin="round"/>
<path d="M10 13.3334H10.0075" stroke="#98A2B3" stroke-width="2" stroke-linecap="round" stroke-linejoin="round"/>
</svg>
