<svg width="20" height="20" viewBox="0 0 20 20" fill="none" xmlns="http://www.w3.org/2000/svg">
<path d="M6.66669 15H13.3334M6.66669 15C6.66669 16.8409 8.15907 18.3333 10 18.3333C11.841 18.3333 13.3334 16.8409 13.3334 15M6.66669 15V13.1572C6.66669 12.6124 6.38885 12.1136 5.99296 11.7392C4.86836 10.6759 4.16669 9.16985 4.16669 7.49996C4.16669 4.2783 6.77836 1.66663 10 1.66663C13.2217 1.66663 15.8334 4.2783 15.8334 7.49996C15.8334 9.16985 15.1317 10.6759 14.0071 11.7392C13.6112 12.1136 13.3334 12.6124 13.3334 13.1572V15M8.33335 7.49996L10 9.16663M10 9.16663L11.6667 7.49996M10 9.16663V15" stroke="#98A2B3" stroke-width="1.5" stroke-linecap="round" stroke-linejoin="round"/>
</svg>
