<svg width="20" height="20" viewBox="0 0 20 20" fill="none" xmlns="http://www.w3.org/2000/svg">
<path d="M15.8333 7.91663V6.91663C15.8266 4.5809 15.7542 3.34263 14.9725 2.54531C14.111 1.66663 12.7245 1.66663 9.95134 1.66663L8.38268 1.66663C5.60956 1.66663 4.223 1.66663 3.3615 2.54531C2.5 3.42398 2.5 4.8382 2.5 7.66662L2.5 11.5C2.5 14.3284 2.5 15.7426 3.3615 16.6213C4.12629 17.4013 5.30488 17.4889 7.5 17.4987" stroke="#98A2B3" stroke-width="1.5" stroke-linecap="round"/>
<path d="M15.5628 16.4072L17.5 18.3333M16.6667 13.75C16.6667 11.6789 14.9878 10 12.9167 10C10.8456 10 9.16669 11.6789 9.16669 13.75C9.16669 15.8211 10.8456 17.5 12.9167 17.5C14.9878 17.5 16.6667 15.8211 16.6667 13.75Z" stroke="#98A2B3" stroke-width="1.5" stroke-linecap="round" stroke-linejoin="round"/>
<path d="M5.83331 5.83325H12.5" stroke="#98A2B3" stroke-width="1.5" stroke-linecap="round"/>
<path d="M5.83331 9.16663H8.33331" stroke="#98A2B3" stroke-width="1.5" stroke-linecap="round"/>
</svg>
