<svg width="22" height="17" viewBox="0 0 22 17" fill="none" xmlns="http://www.w3.org/2000/svg">
<rect width="22" height="17" rx="8.5" fill="#F04438"/>
<path d="M8.6044 4.72727V12H7.28693V6.00923H7.24432L5.54332 7.09588V5.88849L7.35085 4.72727H8.6044ZM10.451 12V11.0483L12.9759 8.57315C13.2173 8.32931 13.4186 8.11269 13.5795 7.9233C13.7405 7.7339 13.8613 7.55043 13.9418 7.37287C14.0223 7.19531 14.0625 7.00592 14.0625 6.80469C14.0625 6.57505 14.0104 6.37855 13.9062 6.2152C13.8021 6.04948 13.6589 5.92164 13.4766 5.83168C13.2943 5.74171 13.0871 5.69673 12.8551 5.69673C12.616 5.69673 12.4065 5.74645 12.2266 5.84588C12.0466 5.94294 11.907 6.08144 11.8075 6.26136C11.7105 6.44129 11.6619 6.65554 11.6619 6.90412H10.4084C10.4084 6.44247 10.5137 6.04119 10.7244 5.70028C10.9351 5.35937 11.2251 5.09541 11.5945 4.90838C11.9661 4.72135 12.3923 4.62784 12.8729 4.62784C13.3606 4.62784 13.7891 4.71899 14.1584 4.90128C14.5277 5.08357 14.8142 5.33333 15.0178 5.65057C15.2237 5.9678 15.3267 6.33002 15.3267 6.73722C15.3267 7.00947 15.2746 7.27699 15.1705 7.53977C15.0663 7.80256 14.8828 8.09375 14.62 8.41335C14.3596 8.73295 13.9938 9.12003 13.5227 9.57457L12.2692 10.8494V10.8991H15.4368V12H10.451Z" fill="white"/>
</svg>
