<svg width="20" height="20" viewBox="0 0 20 20" fill="none" xmlns="http://www.w3.org/2000/svg">
<path d="M10.8333 4.16663C14.9754 4.16663 18.3333 6.96485 18.3333 10.4166C18.3333 12.1321 17.5039 13.6862 16.161 14.8156C15.9597 14.9849 15.8333 15.2302 15.8333 15.4932V17.5H14.1666L13.5051 16.5561C13.4024 16.4096 13.218 16.346 13.0447 16.3905C11.6039 16.761 10.0627 16.761 8.62184 16.3905C8.44861 16.346 8.26415 16.4096 8.16149 16.5561L7.49996 17.5H5.83329V15.5128C5.83329 15.2388 5.69858 14.9823 5.47299 14.8268C4.57733 14.2092 1.66663 13.0011 1.66663 11.7152V10.4166C1.66663 9.92352 2.03972 9.52377 2.49996 9.52377C3.0055 9.52377 3.41819 9.32736 3.585 8.80502C4.4379 6.1343 7.35985 4.16663 10.8333 4.16663Z" stroke="#1B74E4" stroke-width="1.5" stroke-linejoin="round"/>
<path d="M12.0833 6.66667C11.5566 6.39585 10.9969 6.25 10.4166 6.25C9.83634 6.25 9.27659 6.39585 8.74994 6.66667" stroke="#1B74E4" stroke-width="1.5" stroke-linecap="round" stroke-linejoin="round"/>
<path d="M6.24978 9.16663H6.25726" stroke="#1B74E4" stroke-width="2" stroke-linecap="round" stroke-linejoin="round"/>
<path d="M17.4999 7.08337C17.9166 6.66671 18.3333 5.88584 18.3333 4.85882C18.3333 3.5561 17.214 2.50004 15.8333 2.50004C15.5411 2.50004 15.2606 2.54734 14.9999 2.63426" stroke="#1B74E4" stroke-width="1.5" stroke-linecap="round"/>
</svg>
