<svg width="159" height="27" viewBox="0 0 159 27" fill="none" xmlns="http://www.w3.org/2000/svg">
<g clip-path="url(#clip0_0_1)">
<path d="M97.254 10.3206L101.017 18.6512L104.761 10.3206L108.324 10.3206L101.017 26.9827L93.6914 10.3206H97.254Z" fill="#1B74E4"/>
<path d="M89.3605 10.3207H92.6921V26.9828H89.3605V10.3207Z" fill="#1B74E4"/>
<path d="M79.371 10.3206V3.65522H82.7V10.3206H87.6957V13.652L82.7 13.652V18.6512C82.7 20.0276 83.1895 21.2047 84.1668 22.1826C85.144 23.1606 86.3203 23.6504 87.6957 23.6504V26.9827C85.3991 26.9827 83.4334 26.1686 81.809 24.5421C80.1828 22.9157 79.371 20.9486 79.371 18.6512V13.652H77.7052V10.3206H79.371Z" fill="#1B74E4"/>
<path d="M72.71 18.6513C72.71 17.2749 72.2222 16.0987 71.2441 15.1199C70.2677 14.1419 69.0905 13.6529 67.7152 13.6529C66.3398 13.6529 65.1635 14.1419 64.1862 15.1199C63.209 16.0987 62.7195 17.2749 62.7195 18.6513V26.9828H59.3896V10.3207H62.7195V11.9696C64.1517 10.8718 65.8175 10.3207 67.7152 10.3207C70.0109 10.3207 71.9723 11.1339 73.6028 12.7595C75.2281 14.392 76.0407 16.3531 76.0407 18.6513V26.9828L72.71 26.9828V18.6513Z" fill="#1B74E4"/>
<path d="M52.6615 14.8392C52.1065 14.3666 51.4525 14.0286 50.6915 13.8242C49.3566 13.4663 48.0933 13.6319 46.9023 14.3192C45.7113 15.0074 44.9375 16.0198 44.5798 17.3565C44.3747 18.118 44.3403 18.8536 44.4721 19.5711L52.6615 14.8392ZM54.2791 19.678L57.6805 19.6367L57.4409 20.7922C56.8437 23.0215 55.551 24.7144 53.5621 25.8631C51.574 27.0117 49.4652 27.2912 47.2453 26.6961C45.0236 26.1011 43.338 24.8032 42.1893 22.8137C41.0423 20.8242 40.7656 18.7191 41.3577 16.4924C41.9523 14.27 43.2493 12.5815 45.2374 11.4337C47.2255 10.285 49.3299 10.0082 51.555 10.6006C53.7775 11.2008 55.4614 12.4935 56.6102 14.4822C56.8989 14.985 57.1307 15.4886 57.3099 16.0026L46.1379 22.4575C46.6929 22.9301 47.3496 23.2733 48.1079 23.4734C49.4428 23.8296 50.7062 23.6648 51.898 22.9775C53.0881 22.2893 53.8628 21.2769 54.2196 19.9419C54.2455 19.8488 54.2636 19.7651 54.2791 19.678Z" fill="#1B74E4"/>
<path d="M36.3809 21.2339L39.2446 22.95C38.8869 23.5201 38.4672 24.0418 37.9778 24.5317C36.3464 26.1633 34.3807 26.9825 32.085 26.9825C29.7884 26.9825 27.8235 26.1685 26.1974 24.542C24.5729 22.9164 23.7594 20.9485 23.7594 18.6511C23.7594 16.3537 24.5729 14.3918 26.1974 12.7601C27.8235 11.1337 29.7884 10.3205 32.085 10.3205C34.3807 10.3205 36.3464 11.1337 37.9778 12.7541C38.4672 13.2551 38.8869 13.789 39.2446 14.353L36.3809 16.07C36.1706 15.7345 35.9155 15.4214 35.6139 15.1196C34.6367 14.1425 33.4595 13.6527 32.085 13.6527C30.7087 13.6527 29.5324 14.1425 28.5552 15.1196C27.5788 16.0984 27.0893 17.2747 27.0893 18.6511C27.0893 20.0274 27.5788 21.2046 28.5552 22.1825C29.5324 23.1605 30.7087 23.6503 32.085 23.6503C33.4595 23.6503 34.6367 23.1605 35.6139 22.1825C35.9155 21.8816 36.1706 21.5685 36.3809 21.2339Z" fill="#1B74E4"/>
<path d="M18.7642 18.6513C18.7642 17.2749 18.2756 16.0987 17.2984 15.1199C16.3203 14.1419 15.1448 13.6529 13.7703 13.6529C12.394 13.6529 11.2186 14.1419 10.2405 15.1199C9.26322 16.0987 8.77459 17.2749 8.77459 18.6513V26.9828H5.44385L5.44385 10.3207H8.77459V11.9696C10.2077 10.8718 11.8709 10.3207 13.7703 10.3207C16.0652 10.3207 18.0257 11.1339 19.6579 12.7595C21.2815 14.392 22.095 16.3531 22.095 18.6513V26.9828L18.7642 26.9828V18.6513Z" fill="#1B74E4"/>
<path d="M0.449768 10.3207H3.77965L3.77965 26.9828H0.449768L0.449768 10.3207Z" fill="#1B74E4"/>
<path d="M1.02895 3.59418L0 4.18836L0 5.37758L0 6.56595L1.02895 7.16185L2.05877 7.7569L3.08773 7.16185L4.11668 6.56595V5.37758V4.18836L3.08773 3.59418L2.05877 3L1.02895 3.59418Z" fill="#1B74E4"/>
<path d="M90.9258 3L91.9556 3.59418L92.9846 4.18836V5.37758V6.56681L91.9556 7.16185L90.9258 7.7569L89.8977 7.16185L88.8679 6.56681V5.37758V4.18836L89.8977 3.59418L90.9258 3Z" fill="#1B74E4"/>
</g>
<path d="M111.424 14.74L115.492 14.812C116.548 14.812 117.58 14.776 118.588 14.704C118.756 14.632 118.924 14.596 119.092 14.596C119.764 14.596 120.292 14.968 120.676 15.712C120.868 15.952 120.964 16.192 120.964 16.432C120.964 17.008 120.712 17.356 120.208 17.476C115.144 17.38 112.168 17.32 111.28 17.296C111.088 17.368 110.908 17.404 110.74 17.404C110.596 17.404 110.5 17.38 110.452 17.332C110.404 17.26 110.38 17.104 110.38 16.864L110.74 14.812C110.788 14.764 111.016 14.74 111.424 14.74ZM126.129 21.976C126.417 21.976 127.293 21.388 128.757 20.212C130.245 19.036 131.661 17.86 133.005 16.684L134.985 14.92C135.081 14.824 135.129 14.764 135.129 14.74C135.129 14.692 135.093 14.668 135.021 14.668C134.109 14.668 132.921 15.196 131.457 16.252C129.993 17.284 128.721 18.388 127.641 19.564C126.585 20.716 126.057 21.496 126.057 21.904C126.057 21.952 126.081 21.976 126.129 21.976ZM132.357 22.516C132.357 22.588 132.429 22.624 132.573 22.624C132.741 22.624 133.449 22.264 134.697 21.544C137.961 19.696 141.801 17.224 146.217 14.128C146.433 14.296 146.541 14.5 146.541 14.74C146.541 14.98 146.421 15.208 146.181 15.424C145.941 15.64 145.593 15.952 145.137 16.36C144.705 16.768 143.865 17.5 142.617 18.556C141.369 19.612 140.205 20.572 139.125 21.436C136.293 23.716 134.205 25.06 132.861 25.468C132.429 25.588 131.961 25.648 131.457 25.648C130.977 25.576 130.533 25.396 130.125 25.108C129.741 24.82 129.549 24.484 129.549 24.1C129.549 23.716 129.633 23.152 129.801 22.408C129.993 21.64 130.089 21.232 130.089 21.184C130.089 21.112 130.065 21.076 130.017 21.076C129.993 21.076 129.933 21.124 129.837 21.22C129.525 21.556 129.129 21.976 128.649 22.48C128.169 22.96 127.341 23.62 126.165 24.46C125.013 25.276 124.077 25.684 123.357 25.684C123.237 25.66 123.093 25.612 122.925 25.54C122.733 25.492 122.493 25.3 122.205 24.964C121.917 24.628 121.773 24.148 121.773 23.524C121.773 22.9 122.241 21.952 123.177 20.68C124.113 19.384 125.253 18.124 126.597 16.9C127.941 15.652 129.417 14.572 131.025 13.66C132.633 12.748 134.037 12.292 135.237 12.292C135.669 12.292 136.029 12.616 136.317 13.264C136.293 13.096 137.073 12.016 138.657 10.024C140.241 8.008 142.113 5.992 144.273 3.976C146.457 1.936 148.149 0.915999 149.349 0.915999C149.757 0.915999 149.961 1.108 149.961 1.492C149.961 2.092 149.553 2.908 148.737 3.94C147.945 4.972 147.081 5.932 146.145 6.82C145.233 7.708 144.045 8.824 142.581 10.168C139.197 13.24 136.641 15.856 134.913 18.016C133.209 20.176 132.357 21.676 132.357 22.516ZM143.635 22.372C144.475 22.372 145.243 21.868 145.939 20.86C146.659 19.828 147.163 18.796 147.451 17.764C147.739 16.708 147.883 15.868 147.883 15.244C147.883 15.076 147.751 14.992 147.487 14.992C147.247 14.992 146.959 15.124 146.623 15.388L141.907 19.024C141.571 19.216 141.187 19.312 140.755 19.312C140.323 19.312 140.107 19.156 140.107 18.844C140.107 18.628 140.131 18.484 140.179 18.412C140.251 18.34 140.431 18.22 140.719 18.052C142.495 16.828 144.919 14.836 147.991 12.076C148.351 11.596 148.675 11.356 148.963 11.356C149.251 11.356 149.731 11.452 150.403 11.644C151.075 11.812 151.411 12.016 151.411 12.256C151.411 13.696 151.279 15.004 151.015 16.18C150.751 17.356 150.475 18.256 150.187 18.88C149.923 19.48 149.791 19.804 149.791 19.852C149.791 19.9 149.815 19.924 149.863 19.924C149.911 19.924 150.007 19.888 150.151 19.816C151.951 18.904 154.243 17.416 157.027 15.352L157.891 14.704C158.107 14.872 158.215 15.076 158.215 15.316C158.215 15.556 158.107 15.772 157.891 15.964C157.843 15.964 157.219 16.468 156.019 17.476C154.843 18.484 153.523 19.588 152.059 20.788C150.619 21.964 149.071 23.044 147.415 24.028C145.759 25.012 144.475 25.504 143.563 25.504C141.307 25.504 140.179 24.148 140.179 21.436C140.179 21.22 140.263 21.028 140.431 20.86C140.623 20.668 140.863 20.572 141.151 20.572C141.151 20.692 141.211 20.884 141.331 21.148C141.475 21.388 141.619 21.592 141.763 21.76C142.195 22.168 142.819 22.372 143.635 22.372Z" fill="#1D2939"/>
<defs>
<clipPath id="clip0_0_1">
<rect width="108.324" height="24" fill="white" transform="translate(0 3)"/>
</clipPath>
</defs>
</svg>
