<svg width="109" height="24" viewBox="0 0 109 24" fill="none" xmlns="http://www.w3.org/2000/svg">
<path d="M97.254 7.32058L101.017 15.6512L104.761 7.32058L108.324 7.32058L101.017 23.9827L93.6914 7.32058H97.254Z" fill="#1B74E4"/>
<path d="M89.3605 7.3207H92.6921V23.9828H89.3605V7.3207Z" fill="#1B74E4"/>
<path d="M79.371 7.32061V0.655252H82.7V7.32061H87.6957V10.652L82.7 10.652V15.6512C82.7 17.0276 83.1895 18.2047 84.1668 19.1827C85.144 20.1606 86.3203 20.6505 87.6957 20.6505V23.9827C85.3991 23.9827 83.4334 23.1686 81.809 21.5422C80.1828 19.9157 79.371 17.9486 79.371 15.6512V10.652H77.7052V7.32061H79.371Z" fill="#1B74E4"/>
<path d="M72.71 15.6513C72.71 14.2749 72.2222 13.0987 71.2441 12.1199C70.2677 11.1419 69.0905 10.6529 67.7152 10.6529C66.3398 10.6529 65.1635 11.1419 64.1862 12.1199C63.209 13.0987 62.7195 14.2749 62.7195 15.6513V23.9828H59.3896V7.3207H62.7195V8.96957C64.1517 7.87176 65.8175 7.3207 67.7152 7.3207C70.0109 7.3207 71.9723 8.13392 73.6028 9.75951C75.2281 11.392 76.0407 13.3531 76.0407 15.6513V23.9828L72.71 23.9828V15.6513Z" fill="#1B74E4"/>
<path d="M52.6615 11.8392C52.1065 11.3666 51.4525 11.0286 50.6915 10.8242C49.3566 10.4663 48.0933 10.6319 46.9023 11.3192C45.7113 12.0074 44.9375 13.0198 44.5798 14.3565C44.3747 15.118 44.3403 15.8536 44.4721 16.5711L52.6615 11.8392ZM54.2791 16.678L57.6805 16.6367L57.4409 17.7922C56.8437 20.0215 55.551 21.7144 53.5621 22.8631C51.574 24.0117 49.4652 24.2912 47.2453 23.6961C45.0236 23.1011 43.338 21.8032 42.1893 19.8137C41.0423 17.8242 40.7656 15.7191 41.3577 13.4924C41.9523 11.27 43.2493 9.5815 45.2374 8.43367C47.2255 7.28498 49.3299 7.00815 51.555 7.60061C53.7775 8.20083 55.4614 9.49354 56.6102 11.4822C56.8989 11.985 57.1307 12.4886 57.3099 13.0026L46.1379 19.4575C46.6929 19.9301 47.3496 20.2733 48.1079 20.4734C49.4428 20.8296 50.7062 20.6648 51.898 19.9775C53.0881 19.2893 53.8628 18.2769 54.2196 16.9419C54.2455 16.8488 54.2636 16.7651 54.2791 16.678Z" fill="#1B74E4"/>
<path d="M36.3809 18.2339L39.2446 19.95C38.8869 20.52 38.4672 21.0418 37.9778 21.5316C36.3464 23.1633 34.3807 23.9825 32.085 23.9825C29.7884 23.9825 27.8235 23.1684 26.1974 21.542C24.5729 19.9164 23.7594 17.9484 23.7594 15.651C23.7594 13.3536 24.5729 11.3917 26.1974 9.7601C27.8235 8.13365 29.7884 7.32042 32.085 7.32042C34.3807 7.32042 36.3464 8.13365 37.9778 9.75407C38.4672 10.2551 38.8869 10.7889 39.2446 11.3529L36.3809 13.0699C36.1706 12.7345 35.9155 12.4214 35.6139 12.1196C34.6367 11.1425 33.4595 10.6527 32.085 10.6527C30.7087 10.6527 29.5324 11.1425 28.5552 12.1196C27.5788 13.0984 27.0893 14.2747 27.0893 15.651C27.0893 17.0274 27.5788 18.2046 28.5552 19.1825C29.5324 20.1604 30.7087 20.6503 32.085 20.6503C33.4595 20.6503 34.6367 20.1604 35.6139 19.1825C35.9155 18.8815 36.1706 18.5685 36.3809 18.2339Z" fill="#1B74E4"/>
<path d="M18.7642 15.6513C18.7642 14.2749 18.2756 13.0987 17.2984 12.1199C16.3203 11.1419 15.1448 10.6529 13.7703 10.6529C12.394 10.6529 11.2186 11.1419 10.2405 12.1199C9.26322 13.0987 8.77459 14.2749 8.77459 15.6513V23.9828H5.44385L5.44385 7.3207H8.77459V8.96957C10.2077 7.87176 11.8709 7.3207 13.7703 7.3207C16.0652 7.3207 18.0257 8.13392 19.6579 9.75951C21.2815 11.392 22.095 13.3531 22.095 15.6513V23.9828L18.7642 23.9828V15.6513Z" fill="#1B74E4"/>
<path d="M0.449768 7.3207H3.77965L3.77965 23.9828H0.449768L0.449768 7.3207Z" fill="#1B74E4"/>
<path d="M1.02895 0.594177L0 1.18836L0 2.37758L0 3.56595L1.02895 4.16185L2.05877 4.7569L3.08773 4.16185L4.11668 3.56595V2.37758V1.18836L3.08773 0.594177L2.05877 -4.29153e-06L1.02895 0.594177Z" fill="#1B74E4"/>
<path d="M90.9258 -4.29153e-06L91.9556 0.594177L92.9846 1.18836V2.37758V3.56681L91.9556 4.16185L90.9258 4.7569L89.8977 4.16185L88.8679 3.56681V2.37758V1.18836L89.8977 0.594177L90.9258 -4.29153e-06Z" fill="#1B74E4"/>
</svg>
